<svg id="instagram-logo" xmlns="http://www.w3.org/2000/svg" width="15.462" height="15.462" viewBox="0 0 15.462 15.462">
  <path id="Path_1409" data-name="Path 1409" d="M11.195,0H4.267A4.272,4.272,0,0,0,0,4.267v6.928a4.272,4.272,0,0,0,4.267,4.267h6.928a4.272,4.272,0,0,0,4.267-4.267V4.267A4.272,4.272,0,0,0,11.195,0Zm2.9,11.195a2.9,2.9,0,0,1-2.9,2.9H4.267a2.9,2.9,0,0,1-2.895-2.9V4.267a2.9,2.9,0,0,1,2.895-2.9h6.928a2.9,2.9,0,0,1,2.9,2.9v6.928Z" fill="#14a5da"/>
  <path id="Path_1410" data-name="Path 1410" d="M44.952,40.97a3.984,3.984,0,1,0,3.984,3.984A3.989,3.989,0,0,0,44.952,40.97Zm0,6.6a2.612,2.612,0,1,1,2.612-2.612A2.615,2.615,0,0,1,44.952,47.566Z" transform="translate(-37.221 -37.223)" fill="#14a5da"/>
  <path id="Path_1411" data-name="Path 1411" d="M119.927,28.251a1.005,1.005,0,1,0,.712.294A1.01,1.01,0,0,0,119.927,28.251Z" transform="translate(-108.045 -25.667)" fill="#14a5da"/>
</svg>
