<svg xmlns="http://www.w3.org/2000/svg" width="10.913" height="15.6" viewBox="0 0 10.913 15.6">
  <g id="odnoklassniki" transform="translate(-76.922)">
    <g id="Group_27" data-name="Group 27" transform="translate(78.478)">
      <g id="Group_26" data-name="Group 26" transform="translate(0)">
        <path id="Path_1412" data-name="Path 1412" d="M131.9,0a3.9,3.9,0,1,0,3.9,3.9A3.9,3.9,0,0,0,131.9,0Zm0,5.85a1.95,1.95,0,1,1,1.95-1.95A1.952,1.952,0,0,1,131.9,5.85Z" transform="translate(-128.002)" fill="#14a5da"/>
      </g>
    </g>
    <g id="Group_29" data-name="Group 29" transform="translate(76.922 7.406)">
      <g id="Group_28" data-name="Group 28" transform="translate(0)">
        <path id="Path_1413" data-name="Path 1413" d="M87.55,243.35a.974.974,0,0,0-1.379,0,5.37,5.37,0,0,1-7.584,0,.975.975,0,1,0-1.379,1.38,7.268,7.268,0,0,0,4.336,2.085l-2.78,2.78a.975.975,0,1,0,1.379,1.379l2.236-2.236,2.236,2.236a.975.975,0,1,0,1.379-1.379l-2.78-2.78a7.268,7.268,0,0,0,4.336-2.085A.976.976,0,0,0,87.55,243.35Z" transform="translate(-76.922 -243.064)" fill="#14a5da"/>
      </g>
    </g>
  </g>
</svg>
