<svg xmlns="http://www.w3.org/2000/svg" width="21" height="21" viewBox="0 0 21 21">
  <path id="RSS" d="M4.76,16.233a2.762,2.762,0,0,1,0,3.926h0a2.791,2.791,0,0,1-3.942,0,2.765,2.765,0,0,1,0-3.927h0a2.786,2.786,0,0,1,3.942,0Zm0,0h0ZM.818,20.16h0ZM0,7.141v4.01a9.78,9.78,0,0,1,6.947,2.886A9.8,9.8,0,0,1,9.83,20.993h0V21h4.026a13.826,13.826,0,0,0-4.066-9.792A13.809,13.809,0,0,0,0,7.141ZM.01,0V4.008A17.011,17.011,0,0,1,16.98,21H21A20.945,20.945,0,0,0,14.842,6.161,20.926,20.926,0,0,0,.01,0Z" fill="#14a5da"/>
</svg>
